<svg id="svg" version="1.1" xmlns="http://www.w3.org/2000/svg" xmlns:xlink="http://www.w3.org/1999/xlink" width="400" height="400" viewBox="0, 0, 400,400"><g id="svgg"><path id="path0" d="M99.377 89.884 C 98.755 90.570,98.633 91.314,98.633 94.426 L 98.633 98.148 111.133 98.146 L 123.633 98.144 123.744 94.423 C 123.912 88.814,124.505 89.063,110.945 89.063 C 100.442 89.063,100.099 89.087,99.377 89.884 M228.822 118.257 C 229.957 118.336,231.715 118.336,232.728 118.255 C 233.741 118.175,232.813 118.110,230.664 118.111 C 228.516 118.112,227.687 118.178,228.822 118.257 M224.316 118.629 C 224.692 118.727,225.308 118.727,225.684 118.629 C 226.060 118.530,225.752 118.450,225.000 118.450 C 224.248 118.450,223.940 118.530,224.316 118.629 M219.531 119.515 C 216.722 120.453,217.443 120.461,220.898 119.531 C 222.402 119.126,223.193 118.796,222.656 118.796 C 222.119 118.797,220.713 119.121,219.531 119.515 M241.211 119.709 C 243.145 120.215,245.078 120.747,245.508 120.891 C 246.136 121.101,246.170 121.075,245.679 120.754 C 244.876 120.230,239.493 118.745,238.484 118.769 C 238.050 118.780,239.277 119.203,241.211 119.709 M215.430 120.912 C 214.453 121.383,214.420 121.437,215.234 121.238 C 216.341 120.967,217.585 120.333,216.992 120.342 C 216.777 120.345,216.074 120.602,215.430 120.912 M246.517 121.247 C 246.874 121.583,251.953 123.766,251.953 123.584 C 251.953 123.476,250.814 122.872,249.423 122.241 C 247.118 121.196,246.088 120.844,246.517 121.247 M210.013 123.435 C 201.057 128.669,194.124 137.193,190.821 147.032 C 190.283 148.633,189.853 150.175,189.865 150.459 C 189.877 150.744,190.404 149.422,191.037 147.521 C 194.448 137.272,201.729 128.408,210.938 123.294 C 212.334 122.519,213.298 121.882,213.080 121.879 C 212.861 121.877,211.481 122.577,210.013 123.435 M252.539 124.096 C 252.754 124.304,254.098 125.291,255.525 126.290 C 260.795 129.977,265.420 135.433,268.566 141.676 C 270.529 145.570,270.882 145.771,269.185 142.028 C 266.824 136.821,262.560 131.429,257.797 127.626 C 255.163 125.523,251.415 123.006,252.539 124.096 M228.628 127.633 C 229.871 127.711,231.804 127.710,232.924 127.631 C 234.045 127.553,233.027 127.489,230.664 127.490 C 228.301 127.491,227.384 127.555,228.628 127.633 M222.266 128.346 C 214.189 130.454,205.428 137.491,201.908 144.697 C 200.557 147.464,201.165 146.770,203.125 143.308 C 206.980 136.499,214.660 130.800,222.825 128.689 C 224.773 128.185,225.928 127.776,225.391 127.779 C 224.854 127.783,223.447 128.038,222.266 128.346 M241.797 129.647 C 248.092 131.996,254.642 137.150,258.035 142.426 C 260.474 146.219,260.598 146.378,259.807 144.716 C 256.610 138.003,244.386 128.335,239.347 128.535 C 239.083 128.545,240.186 129.046,241.797 129.647 M112.207 133.082 C 112.583 133.180,113.198 133.180,113.574 133.082 C 113.950 132.984,113.643 132.903,112.891 132.903 C 112.139 132.903,111.831 132.984,112.207 133.082 M105.116 134.088 C 102.550 135.406,102.539 135.474,102.539 149.672 L 102.539 162.568 103.461 163.315 C 105.089 164.634,106.027 164.284,109.343 161.116 C 113.170 157.459,113.302 157.422,122.503 157.422 C 133.262 157.422,133.215 157.474,133.181 145.423 C 133.145 132.897,134.052 133.593,117.773 133.600 C 109.249 133.604,105.799 133.737,105.116 134.088 M151.899 138.503 C 146.158 140.271,142.668 147.797,145.070 153.231 C 148.324 160.594,158.261 162.110,163.589 156.056 C 170.827 147.833,162.450 135.254,151.899 138.503 M222.461 140.643 C 221.916 140.890,222.153 140.925,223.242 140.759 C 224.102 140.628,224.878 140.457,224.967 140.378 C 225.303 140.082,223.211 140.303,222.461 140.643 M226.439 140.714 C 231.370 142.299,231.098 148.190,225.852 153.410 C 219.806 159.426,214.037 159.539,213.285 153.655 C 213.011 151.510,212.990 151.473,212.942 153.066 C 212.725 160.254,220.475 160.118,227.034 152.819 C 231.766 147.552,231.131 140.022,225.977 140.276 C 225.444 140.302,225.590 140.441,226.439 140.714 M101.674 142.383 C 101.677 143.457,101.753 143.850,101.843 143.256 C 101.933 142.663,101.930 141.784,101.837 141.303 C 101.745 140.823,101.671 141.309,101.674 142.383 M219.108 142.349 C 216.492 144.269,213.218 149.105,213.301 150.927 C 213.312 151.169,213.606 150.664,213.954 149.805 C 215.141 146.871,217.925 143.506,220.692 141.660 C 221.224 141.306,221.487 141.020,221.278 141.025 C 221.069 141.031,220.093 141.626,219.108 142.349 M260.575 146.680 C 260.575 146.895,260.826 147.510,261.133 148.047 C 261.440 148.584,261.691 148.848,261.691 148.633 C 261.691 148.418,261.440 147.803,261.133 147.266 C 260.826 146.729,260.575 146.465,260.575 146.680 M270.932 147.266 C 271.802 150.298,272.262 152.260,272.306 153.125 C 272.343 153.842,272.405 153.912,272.541 153.387 C 272.752 152.572,271.643 147.732,271.047 146.865 C 270.757 146.441,270.726 146.547,270.932 147.266 M199.850 149.069 C 199.504 150.083,199.289 150.981,199.371 151.064 C 199.454 151.147,199.804 150.384,200.150 149.369 C 200.496 148.354,200.711 147.456,200.629 147.374 C 200.546 147.291,200.196 148.054,199.850 149.069 M261.729 149.316 C 261.819 150.171,263.241 154.678,263.258 154.162 C 263.285 153.340,262.141 149.219,261.886 149.219 C 261.794 149.219,261.723 149.263,261.729 149.316 M101.699 153.125 C 101.699 154.951,101.766 155.698,101.849 154.785 C 101.931 153.872,101.931 152.378,101.849 151.465 C 101.766 150.552,101.699 151.299,101.699 153.125 M198.655 152.951 C 198.507 153.735,198.465 154.455,198.561 154.550 C 198.656 154.646,198.855 154.083,199.002 153.299 C 199.149 152.515,199.191 151.795,199.096 151.700 C 199.000 151.604,198.802 152.167,198.655 152.951 M188.925 155.176 C 188.606 157.832,188.641 163.833,188.987 165.776 C 189.136 166.612,189.258 164.107,189.258 160.210 C 189.258 152.267,189.264 152.356,188.925 155.176 M272.755 155.664 C 272.759 156.523,272.839 156.829,272.933 156.343 C 273.026 155.857,273.022 155.154,272.925 154.781 C 272.827 154.407,272.750 154.805,272.755 155.664 M198.164 157.031 C 198.164 158.213,198.237 158.696,198.327 158.105 C 198.416 157.515,198.416 156.548,198.327 155.957 C 198.237 155.366,198.164 155.850,198.164 157.031 M263.380 156.445 C 263.384 157.305,263.464 157.610,263.558 157.124 C 263.651 156.638,263.647 155.935,263.550 155.562 C 263.452 155.188,263.375 155.586,263.380 156.445 M273.175 160.352 C 273.177 161.855,273.247 162.423,273.332 161.612 C 273.417 160.802,273.415 159.571,273.329 158.878 C 273.243 158.185,273.173 158.848,273.175 160.352 M263.789 160.547 C 263.789 161.729,263.862 162.212,263.952 161.621 C 264.041 161.030,264.041 160.063,263.952 159.473 C 263.862 158.882,263.789 159.365,263.789 160.547 M197.755 160.742 C 197.759 161.602,197.839 161.907,197.933 161.421 C 198.026 160.935,198.022 160.232,197.925 159.859 C 197.827 159.485,197.750 159.883,197.755 160.742 M263.388 164.453 C 263.388 165.420,263.464 165.815,263.557 165.332 C 263.650 164.849,263.650 164.058,263.557 163.574 C 263.464 163.091,263.388 163.486,263.388 164.453 M198.138 164.453 C 198.138 165.205,198.218 165.513,198.316 165.137 C 198.414 164.761,198.414 164.146,198.316 163.770 C 198.218 163.394,198.138 163.701,198.138 164.453 M272.506 165.865 C 272.363 167.083,272.324 168.157,272.419 168.252 C 272.514 168.347,272.715 167.436,272.867 166.226 C 273.018 165.016,273.057 163.942,272.954 163.839 C 272.851 163.736,272.649 164.648,272.506 165.865 M198.465 166.829 C 198.480 167.349,198.652 168.125,198.846 168.555 C 199.093 169.099,199.128 168.862,198.962 167.773 C 198.686 165.960,198.425 165.464,198.465 166.829 M262.717 167.795 C 262.570 168.579,262.528 169.299,262.623 169.394 C 262.719 169.490,262.917 168.926,263.064 168.142 C 263.211 167.358,263.254 166.639,263.158 166.543 C 263.063 166.448,262.864 167.011,262.717 167.795 M261.762 171.137 C 261.522 171.827,261.393 172.461,261.477 172.544 C 261.560 172.628,261.825 172.131,262.066 171.441 C 262.307 170.751,262.435 170.117,262.352 170.034 C 262.268 169.950,262.003 170.447,261.762 171.137 M190.813 173.633 C 192.057 179.966,201.026 191.672,207.487 195.396 C 208.580 196.025,208.633 196.032,207.820 195.436 C 200.014 189.717,195.096 183.553,191.722 175.260 C 191.096 173.721,190.687 172.988,190.813 173.633 M200.781 173.978 C 200.781 174.397,201.944 176.563,202.169 176.563 C 202.276 176.563,202.073 175.991,201.718 175.293 C 200.993 173.867,200.781 173.570,200.781 173.978 M260.547 174.129 C 260.547 174.366,259.583 176.021,258.404 177.807 C 257.226 179.593,256.743 180.497,257.330 179.816 C 258.837 178.068,261.095 174.246,260.796 173.947 C 260.659 173.810,260.547 173.892,260.547 174.129 M268.473 178.475 C 267.354 180.753,265.553 183.716,264.471 185.059 C 263.389 186.401,262.650 187.500,262.829 187.500 C 263.821 187.500,271.318 175.014,270.659 174.460 C 270.576 174.389,269.592 176.196,268.473 178.475 M202.588 177.441 C 204.826 181.200,209.903 186.180,213.939 188.574 C 217.991 190.978,217.913 190.613,213.829 188.061 C 209.917 185.616,206.564 182.526,204.210 179.199 C 202.800 177.206,201.808 176.131,202.588 177.441 M253.688 183.385 C 252.602 184.467,250.645 186.055,249.339 186.914 C 245.510 189.436,245.432 189.498,247.124 188.690 C 249.598 187.510,256.396 181.913,255.824 181.528 C 255.736 181.468,254.775 182.304,253.688 183.385 M260.724 189.480 C 258.490 191.779,254.183 194.992,250.586 197.042 C 247.090 199.034,246.915 199.477,250.347 197.648 C 254.015 195.693,263.705 187.891,262.465 187.891 C 262.357 187.891,261.573 188.606,260.724 189.480 M242.383 190.653 C 241.523 191.066,241.260 191.295,241.797 191.161 C 242.903 190.886,244.933 189.868,244.336 189.888 C 244.121 189.896,243.242 190.240,242.383 190.653 M218.945 190.988 C 219.805 191.401,220.771 191.745,221.094 191.753 C 221.763 191.768,219.764 190.846,218.334 190.480 C 217.811 190.346,218.086 190.574,218.945 190.988 M238.867 191.797 C 238.375 192.008,238.303 192.133,238.672 192.133 C 238.994 192.133,239.609 191.982,240.039 191.797 C 240.531 191.585,240.604 191.461,240.234 191.461 C 239.912 191.461,239.297 191.612,238.867 191.797 M226.079 192.854 C 226.565 192.948,227.268 192.944,227.641 192.847 C 228.015 192.749,227.617 192.672,226.758 192.677 C 225.898 192.681,225.593 192.761,226.079 192.854 M229.597 193.252 C 230.299 193.339,231.354 193.337,231.941 193.248 C 232.528 193.159,231.953 193.088,230.664 193.090 C 229.375 193.092,228.895 193.165,229.597 193.252 M214.063 199.023 C 214.600 199.330,215.215 199.582,215.430 199.582 C 215.645 199.582,215.381 199.330,214.844 199.023 C 214.307 198.716,213.691 198.465,213.477 198.465 C 213.262 198.465,213.525 198.716,214.063 199.023 M216.992 200.153 C 217.637 200.448,218.779 200.792,219.531 200.918 C 220.713 201.115,220.666 201.070,219.184 200.582 C 216.605 199.734,215.679 199.553,216.992 200.153 M241.957 200.629 C 241.722 200.726,240.404 201.049,239.027 201.348 C 237.650 201.647,236.963 201.903,237.500 201.917 C 238.538 201.946,242.509 200.981,242.879 200.611 C 243.132 200.358,242.585 200.368,241.957 200.629 M221.875 201.563 C 222.412 201.735,223.291 201.872,223.828 201.868 C 224.705 201.861,224.685 201.830,223.633 201.563 C 221.980 201.142,220.562 201.142,221.875 201.563 M225.488 202.222 C 225.864 202.321,226.479 202.321,226.855 202.222 C 227.231 202.124,226.924 202.044,226.172 202.044 C 225.420 202.044,225.112 202.124,225.488 202.222 M234.473 202.222 C 234.849 202.321,235.464 202.321,235.840 202.222 C 236.216 202.124,235.908 202.044,235.156 202.044 C 234.404 202.044,234.097 202.124,234.473 202.222 M229.199 202.626 C 229.897 202.713,231.040 202.713,231.738 202.626 C 232.437 202.540,231.865 202.469,230.469 202.469 C 229.072 202.469,228.501 202.540,229.199 202.626 " stroke="none" fill="#b8a2a3" fill-rule="evenodd"></path><path id="path1" d="M56.095 242.071 C 55.472 242.170,54.242 242.714,53.360 243.279 C 52.479 243.845,51.613 244.266,51.436 244.215 C 51.259 244.163,51.203 244.265,51.312 244.441 C 51.420 244.617,51.154 245.544,50.720 246.502 C 48.393 251.635,52.499 257.100,58.203 256.463 C 59.385 256.331,60.647 256.192,61.007 256.153 C 61.368 256.114,61.639 255.988,61.610 255.873 C 61.581 255.758,62.140 255.054,62.853 254.307 C 67.814 249.112,63.295 240.928,56.095 242.071 M257.601 243.845 C 255.488 245.706,254.644 248.055,255.138 250.702 C 255.316 251.653,255.348 252.614,255.209 252.838 C 255.071 253.062,255.140 253.133,255.364 252.994 C 255.889 252.670,256.788 253.742,256.450 254.289 C 256.308 254.519,256.337 254.660,256.514 254.602 C 256.691 254.544,257.539 254.934,258.398 255.469 C 263.899 258.890,270.591 254.013,269.365 247.477 C 268.444 242.570,261.490 240.423,257.601 243.845 M120.992 260.375 C 120.941 260.419,119.979 260.565,118.856 260.698 C 116.061 261.029,112.879 262.619,110.455 264.894 C 108.228 266.985,108.203 267.001,108.203 266.332 C 108.203 265.561,105.024 262.926,102.734 261.799 C 99.795 260.353,92.708 260.238,89.776 261.589 C 88.772 262.051,87.849 262.328,87.725 262.204 C 87.601 262.081,87.500 262.195,87.500 262.458 C 87.500 262.721,87.297 262.811,87.049 262.658 C 86.796 262.502,86.703 262.549,86.838 262.767 C 86.969 262.980,86.391 263.824,85.552 264.643 L 84.027 266.133 83.908 263.869 L 83.789 261.606 79.297 261.650 C 76.826 261.674,74.189 261.700,73.438 261.706 L 72.070 261.719 72.120 283.691 L 72.170 305.664 78.110 305.664 L 84.050 305.664 84.115 291.602 C 84.183 276.852,84.517 274.162,86.238 274.512 C 86.502 274.565,86.675 274.390,86.621 274.121 C 86.567 273.853,86.756 273.681,87.041 273.740 C 87.325 273.799,87.454 273.679,87.327 273.474 C 86.372 271.928,94.502 271.208,95.882 272.717 C 96.176 273.038,96.137 273.075,95.740 272.849 C 95.381 272.643,95.284 272.685,95.460 272.969 C 95.607 273.208,95.966 273.312,96.257 273.200 C 96.987 272.920,98.324 274.912,98.803 276.992 C 99.290 279.102,99.314 305.622,98.828 304.492 C 98.533 303.805,98.489 303.843,98.465 304.808 C 98.449 305.446,98.601 305.804,98.828 305.664 C 99.043 305.531,99.219 305.565,99.219 305.739 C 99.219 305.989,103.563 306.039,110.840 305.871 C 111.221 305.862,111.328 302.831,111.328 292.050 C 111.328 275.663,111.561 274.541,115.357 272.597 C 117.992 271.247,124.535 271.977,123.585 273.514 C 123.435 273.757,123.493 273.840,123.716 273.702 C 124.335 273.320,125.388 274.738,126.004 276.783 C 126.442 278.240,126.563 281.571,126.563 292.250 L 126.563 305.859 132.195 305.859 C 139.153 305.859,139.058 305.890,138.610 303.787 C 138.418 302.886,138.309 295.615,138.369 287.630 C 138.428 279.645,138.399 273.189,138.303 273.285 C 137.998 273.590,137.097 269.478,137.366 269.007 C 137.509 268.758,137.487 268.679,137.318 268.832 C 137.149 268.984,136.346 268.081,135.534 266.825 C 134.722 265.569,133.524 264.225,132.871 263.839 C 132.217 263.454,131.790 262.950,131.920 262.721 C 132.050 262.492,132.019 262.429,131.850 262.581 C 131.682 262.733,130.906 262.541,130.127 262.154 C 127.931 261.064,121.620 259.835,120.992 260.375 M162.395 260.786 C 160.726 261.045,158.816 261.446,158.151 261.678 C 157.486 261.910,156.742 261.986,156.498 261.847 C 156.254 261.707,156.186 261.738,156.346 261.914 C 156.746 262.356,154.000 264.167,153.448 263.826 C 153.189 263.665,153.111 263.724,153.262 263.968 C 153.403 264.197,152.778 264.971,151.872 265.688 C 150.966 266.405,150.353 266.785,150.509 266.531 C 150.666 266.277,150.625 265.965,150.417 265.837 C 150.208 265.707,150.108 265.954,150.193 266.393 C 150.280 266.845,149.922 267.685,149.354 268.359 C 148.809 269.007,147.690 270.838,146.867 272.428 C 146.045 274.018,145.314 275.263,145.244 275.194 C 145.174 275.125,145.099 275.567,145.077 276.176 C 145.055 276.786,144.747 277.574,144.394 277.928 C 143.701 278.620,143.530 279.088,144.098 278.737 C 144.299 278.613,144.363 280.223,144.249 282.523 C 144.075 286.046,144.278 288.178,145.131 291.797 L 145.361 292.773 144.765 291.797 C 144.437 291.260,144.168 290.996,144.168 291.211 C 144.168 291.742,145.280 293.656,145.303 293.164 C 145.313 292.949,145.939 293.882,146.693 295.238 C 147.448 296.593,147.946 297.895,147.800 298.130 C 147.652 298.371,147.714 298.448,147.942 298.307 C 148.506 297.959,149.352 299.071,148.994 299.690 C 148.834 299.968,148.843 300.069,149.014 299.914 C 149.385 299.579,153.368 303.078,153.213 303.602 C 153.154 303.801,153.272 303.861,153.476 303.735 C 153.948 303.444,156.704 305.050,156.447 305.466 C 156.341 305.637,156.526 305.882,156.858 306.009 C 157.204 306.142,157.360 306.076,157.224 305.855 C 156.920 305.363,156.789 305.342,159.766 306.275 C 162.987 307.286,168.269 307.354,170.749 306.415 C 171.691 306.059,172.840 305.744,173.303 305.716 C 173.765 305.687,174.068 305.541,173.975 305.391 C 173.754 305.032,175.215 304.257,175.863 304.389 C 176.140 304.446,176.326 304.280,176.275 304.020 C 176.189 303.582,178.463 301.563,179.041 301.563 C 179.182 301.563,179.297 302.364,179.297 303.343 C 179.297 304.431,179.145 305.030,178.906 304.883 C 178.691 304.750,178.516 304.824,178.516 305.048 C 178.516 305.735,180.062 305.893,185.652 305.776 L 191.030 305.664 191.120 283.691 L 191.211 261.719 188.477 261.688 C 186.973 261.671,184.300 261.627,182.537 261.590 C 178.889 261.514,178.925 261.478,179.075 265.072 L 179.158 267.058 177.567 265.266 C 176.692 264.281,175.889 263.457,175.781 263.436 C 175.674 263.414,174.883 263.043,174.023 262.611 C 170.196 260.685,166.644 260.128,162.395 260.786 M215.234 260.705 C 212.020 261.189,208.089 262.870,205.736 264.769 C 204.853 265.481,203.977 265.886,203.587 265.761 C 203.146 265.620,203.084 265.663,203.398 265.892 C 203.943 266.288,201.060 270.191,200.357 270.010 C 200.129 269.951,200.041 270.063,200.163 270.260 C 200.502 270.809,198.787 274.630,198.328 274.346 C 198.107 274.210,198.042 274.286,198.184 274.515 C 198.326 274.745,198.160 276.134,197.815 277.603 C 196.465 283.353,197.483 289.993,200.498 295.103 C 201.137 296.185,201.698 297.334,201.746 297.656 C 201.793 297.979,201.922 298.154,202.032 298.047 C 202.141 297.939,203.377 298.923,204.777 300.233 C 206.177 301.543,208.216 303.060,209.308 303.604 C 210.399 304.148,211.168 304.730,211.017 304.898 C 210.866 305.066,210.923 305.101,211.143 304.976 C 211.364 304.852,212.594 304.996,213.877 305.298 C 219.476 306.615,225.774 305.443,229.667 302.360 C 230.478 301.718,231.253 301.305,231.391 301.443 C 231.528 301.580,231.641 301.410,231.641 301.065 C 231.641 300.719,231.842 300.312,232.087 300.161 C 232.797 299.722,232.102 305.349,231.182 307.492 C 230.413 309.280,229.491 310.424,228.711 310.558 C 228.496 310.595,228.365 310.785,228.420 310.981 C 228.556 311.470,226.293 312.814,224.514 313.301 C 221.703 314.070,213.944 313.643,215.827 312.823 C 216.409 312.569,216.296 312.531,215.373 312.670 C 213.936 312.886,209.995 311.124,210.411 310.451 C 210.552 310.223,210.490 310.145,210.273 310.279 C 210.056 310.413,209.119 309.873,208.192 309.079 C 207.264 308.285,206.440 307.829,206.361 308.066 C 206.065 308.955,203.049 312.691,202.704 312.598 C 202.506 312.544,202.388 312.655,202.441 312.844 C 202.585 313.347,200.795 315.680,200.436 315.458 C 198.723 314.399,200.685 317.322,202.460 318.474 C 203.102 318.891,203.431 319.366,203.270 319.646 C 203.121 319.905,203.135 319.995,203.301 319.846 C 203.467 319.696,205.033 320.342,206.782 321.280 C 213.835 325.066,222.270 325.991,229.073 323.726 C 230.776 323.159,232.358 322.803,232.589 322.934 C 232.819 323.065,232.886 323.037,232.738 322.872 C 232.402 322.499,236.178 319.914,236.830 320.071 C 237.091 320.133,237.172 320.110,237.010 320.020 C 236.848 319.930,237.604 318.860,238.691 317.643 C 243.924 311.783,244.107 310.666,244.232 283.887 L 244.336 261.719 238.184 261.719 L 232.031 261.719 231.986 264.160 C 231.961 265.503,231.866 266.338,231.775 266.016 C 231.565 265.273,227.898 262.623,225.752 261.662 C 223.064 260.459,219.206 260.108,215.234 260.705 M341.211 260.571 C 339.707 260.761,338.218 260.825,337.903 260.711 C 337.587 260.598,337.458 260.635,337.617 260.794 C 337.997 261.174,333.615 262.950,333.094 262.628 C 332.873 262.491,332.801 262.557,332.935 262.774 C 333.070 262.990,332.248 263.809,331.109 264.594 C 329.970 265.378,328.632 266.453,328.135 266.982 C 327.637 267.511,327.053 267.835,326.836 267.701 C 326.605 267.558,326.563 267.654,326.736 267.933 C 327.095 268.515,325.837 270.003,325.278 269.657 C 325.059 269.521,324.993 269.594,325.131 269.819 C 325.270 270.043,324.959 270.993,324.440 271.930 C 321.957 276.413,320.911 281.835,321.547 286.920 C 321.789 288.850,321.980 290.824,321.972 291.306 C 321.964 291.788,322.083 292.105,322.236 292.010 C 322.389 291.916,322.748 292.488,323.033 293.283 C 323.663 295.039,326.000 298.534,327.786 300.391 C 328.509 301.143,329.063 301.873,329.016 302.013 C 328.969 302.154,329.223 302.505,329.580 302.795 C 330.036 303.165,330.141 303.176,329.935 302.832 C 329.502 302.111,329.964 302.236,331.250 303.187 C 331.878 303.651,332.301 304.176,332.191 304.355 C 332.081 304.533,332.292 304.563,332.661 304.421 C 333.152 304.233,333.246 304.303,333.012 304.681 C 332.821 304.990,332.844 305.105,333.070 304.965 C 333.278 304.837,334.623 305.158,336.059 305.679 C 342.450 307.999,350.629 307.389,356.205 304.176 C 358.145 303.058,361.719 300.277,361.719 299.884 C 361.719 299.708,361.922 299.689,362.170 299.842 C 362.432 300.004,362.515 299.950,362.369 299.714 C 362.231 299.490,362.380 299.089,362.701 298.823 C 368.597 293.930,369.646 279.735,364.692 271.886 C 363.950 270.710,363.445 269.567,363.570 269.347 C 363.695 269.126,363.669 269.060,363.512 269.200 C 363.355 269.340,362.529 268.698,361.676 267.772 C 360.822 266.846,359.164 265.428,357.992 264.620 C 356.819 263.812,355.859 263.005,355.859 262.826 C 355.859 262.647,355.728 262.535,355.566 262.577 C 354.905 262.752,353.522 262.024,353.766 261.630 C 353.912 261.393,353.847 261.319,353.616 261.461 C 353.067 261.801,350.741 261.319,350.989 260.917 C 351.097 260.743,350.979 260.474,350.727 260.318 C 350.423 260.130,350.375 260.206,350.584 260.543 C 350.820 260.925,350.664 260.996,349.961 260.829 C 347.991 260.361,343.836 260.238,341.211 260.571 M295.084 261.110 C 294.207 261.397,292.955 261.908,292.302 262.246 C 291.649 262.583,291.004 262.779,290.870 262.680 C 290.735 262.581,290.694 262.599,290.779 262.719 C 290.864 262.840,290.205 263.619,289.314 264.449 C 287.711 265.945,286.244 265.772,287.517 264.237 C 287.775 263.926,287.818 263.672,287.613 263.672 C 287.408 263.672,287.270 263.276,287.306 262.793 C 287.378 261.829,283.190 261.346,277.427 261.655 L 274.972 261.787 275.084 283.677 C 275.156 297.830,275.333 305.612,275.586 305.691 C 275.801 305.759,278.563 305.871,281.725 305.940 L 287.473 306.065 287.584 291.802 C 287.699 277.086,288.065 273.946,289.556 274.868 C 289.781 275.007,289.854 274.941,289.718 274.722 C 288.979 273.525,293.080 271.759,296.565 271.773 C 299.263 271.784,301.872 272.808,301.660 273.773 C 301.606 274.018,301.782 274.175,302.051 274.121 C 302.319 274.067,302.978 274.902,303.514 275.977 C 304.804 278.560,305.356 305.078,304.120 305.078 C 303.762 305.078,303.568 305.238,303.689 305.434 C 303.991 305.922,316.063 305.962,316.797 305.477 C 317.189 305.218,317.221 305.088,316.895 305.084 C 316.513 305.079,316.406 301.823,316.406 290.121 C 316.406 273.742,316.298 272.729,314.050 268.108 C 312.687 265.306,310.443 263.129,307.773 262.019 C 306.729 261.585,305.941 261.120,306.024 260.986 C 306.338 260.476,296.688 260.586,295.084 261.110 M51.335 261.686 C 51.245 261.776,51.169 263.621,51.166 265.788 C 51.162 268.087,51.022 269.510,50.830 269.206 C 50.566 268.790,50.448 268.817,50.248 269.338 C 49.952 270.112,50.291 270.811,50.808 270.491 C 51.021 270.360,51.159 271.451,51.141 273.121 C 51.124 274.692,51.022 275.757,50.913 275.488 C 50.575 274.651,49.996 274.955,50.169 275.879 C 50.259 276.362,50.346 276.900,50.362 277.074 C 50.378 277.248,50.566 277.281,50.781 277.148 C 50.996 277.016,51.172 277.079,51.172 277.288 C 51.172 277.498,50.952 277.758,50.684 277.867 C 50.316 278.016,50.340 278.168,50.781 278.480 C 51.178 278.761,51.210 278.896,50.879 278.900 C 50.610 278.904,50.403 279.302,50.418 279.785 C 50.444 280.624,50.461 280.628,50.781 279.883 C 51.042 279.277,51.123 279.245,51.144 279.741 C 51.160 280.092,50.917 280.870,50.606 281.470 C 50.295 282.070,50.155 282.748,50.296 282.976 C 50.438 283.205,50.674 282.955,50.823 282.418 C 51.183 281.124,51.220 282.341,51.131 292.773 C 51.093 297.285,51.068 301.371,51.075 301.853 C 51.083 302.382,50.912 302.641,50.642 302.508 C 50.396 302.386,50.511 302.544,50.897 302.859 C 51.409 303.278,51.527 303.717,51.333 304.488 C 51.132 305.289,50.980 305.417,50.700 305.018 C 50.397 304.586,50.358 304.591,50.480 305.044 C 50.561 305.347,50.882 305.637,51.193 305.687 C 51.504 305.736,51.934 305.817,52.148 305.865 C 53.898 306.256,63.228 305.785,63.890 305.272 C 64.459 304.832,64.486 304.742,64.000 304.910 C 63.399 305.118,63.355 303.505,63.414 283.427 L 63.477 261.719 62.500 261.701 C 54.908 261.557,51.469 261.552,51.335 261.686 M255.626 261.692 C 255.533 261.785,255.465 271.804,255.475 283.958 L 255.494 306.055 261.895 306.055 C 265.415 306.055,268.233 305.993,268.157 305.917 C 268.081 305.841,268.176 305.364,268.369 304.856 C 268.562 304.349,268.587 303.852,268.425 303.752 C 268.263 303.651,268.176 300.876,268.232 297.585 C 268.288 294.294,268.329 291.426,268.323 291.211 C 268.064 281.729,268.110 275.432,268.435 275.632 C 268.697 275.795,268.700 275.632,268.443 275.145 C 268.055 274.409,268.128 270.221,268.541 269.553 C 268.663 269.356,268.584 269.084,268.366 268.949 C 267.813 268.608,267.869 267.060,268.457 266.427 C 268.851 266.002,268.842 265.960,268.406 266.208 C 267.965 266.459,267.899 266.077,268.040 264.117 L 268.214 261.719 263.306 261.689 C 260.607 261.672,257.812 261.628,257.096 261.591 C 256.380 261.554,255.718 261.599,255.626 261.692 M172.459 272.645 C 175.196 273.710,178.775 277.777,178.228 279.201 C 178.083 279.579,178.152 279.717,178.408 279.559 C 179.237 279.047,179.722 284.645,179.079 287.305 C 177.921 292.094,173.411 295.705,168.452 295.815 C 165.552 295.879,163.175 295.409,163.526 294.842 C 163.679 294.595,163.615 294.520,163.377 294.667 C 162.787 295.032,161.672 294.532,161.977 294.039 C 162.130 293.792,162.041 293.746,161.753 293.924 C 161.009 294.384,157.919 290.745,157.137 288.488 C 155.895 284.906,157.042 275.799,158.613 276.769 C 158.787 276.877,159.058 276.760,159.213 276.509 C 159.390 276.223,159.326 276.156,159.045 276.330 C 158.797 276.483,158.594 276.436,158.594 276.225 C 158.594 275.575,161.852 273.014,162.407 273.227 C 162.695 273.338,162.829 273.263,162.704 273.061 C 162.485 272.707,164.363 272.067,166.406 271.799 C 167.726 271.625,171.022 272.086,172.459 272.645 M224.213 272.105 C 225.788 272.572,226.166 272.819,225.749 273.107 C 225.337 273.391,225.408 273.429,226.027 273.257 C 228.069 272.686,231.771 277.919,232.257 282.062 C 232.629 285.231,230.372 291.406,228.842 291.406 C 228.637 291.406,228.577 291.232,228.708 291.020 C 228.848 290.794,228.681 290.736,228.308 290.879 C 227.888 291.040,227.817 291.216,228.101 291.392 C 229.260 292.108,224.537 294.390,222.754 293.976 C 221.957 293.791,221.831 293.829,222.266 294.123 C 222.701 294.418,222.370 294.521,220.973 294.525 C 219.940 294.529,219.187 294.381,219.301 294.197 C 219.415 294.013,219.077 293.945,218.551 294.046 C 214.675 294.787,209.666 288.589,209.631 283.008 C 209.608 279.241,212.425 273.422,213.985 274.016 C 214.265 274.123,214.391 274.044,214.265 273.840 C 213.311 272.296,220.585 271.027,224.213 272.105 M346.715 272.209 C 346.601 272.393,346.940 272.461,347.467 272.360 C 349.119 272.044,353.945 275.552,353.298 276.598 C 353.114 276.896,353.167 276.973,353.440 276.804 C 355.474 275.548,356.555 285.978,354.752 289.453 C 353.614 291.646,351.169 294.223,350.478 293.958 C 350.193 293.849,350.058 293.918,350.178 294.112 C 350.457 294.565,347.484 295.663,345.703 295.765 C 342.955 295.922,341.350 295.720,341.639 295.252 C 341.816 294.965,341.745 294.908,341.443 295.094 C 340.813 295.484,338.612 294.554,338.933 294.035 C 339.084 293.790,338.992 293.748,338.700 293.928 C 338.088 294.306,336.177 292.521,334.955 290.430 C 333.858 288.551,333.284 285.938,333.969 285.938 C 334.249 285.938,334.175 285.681,333.780 285.287 C 332.573 284.080,334.635 275.562,335.939 276.368 C 336.163 276.507,336.299 276.388,336.240 276.103 C 336.181 275.819,336.366 275.634,336.650 275.693 C 336.935 275.752,337.072 275.646,336.955 275.457 C 336.639 274.945,338.242 273.592,340.234 272.689 C 342.005 271.886,347.149 271.506,346.715 272.209 M350.237 274.381 C 350.367 274.722,350.646 275.000,350.856 275.000 C 351.369 275.000,351.048 274.112,350.464 273.918 C 350.178 273.822,350.091 274.001,350.237 274.381 M150.157 301.751 C 150.299 303.082,150.596 303.303,150.692 302.149 C 150.734 301.633,150.608 301.111,150.411 300.989 C 150.213 300.867,150.099 301.210,150.157 301.751 " stroke="none" fill="#040404" fill-rule="evenodd"></path><path id="path2" d="M171.484 73.881 C 169.229 74.018,166.943 74.304,166.406 74.518 C 165.869 74.732,165.254 74.949,165.039 75.000 C 164.824 75.051,164.241 75.248,163.744 75.437 C 163.247 75.627,162.750 75.781,162.640 75.781 C 160.656 75.781,155.634 81.584,151.662 88.465 C 146.234 97.871,145.596 98.311,137.233 98.411 L 131.692 98.478 131.820 95.821 C 132.178 88.356,129.631 83.515,124.426 81.768 C 121.473 80.777,101.034 80.844,97.992 81.854 C 93.199 83.446,91.130 86.926,90.746 94.043 L 90.509 98.438 89.297 98.497 C 83.029 98.805,74.079 104.171,70.641 109.682 C 70.001 110.709,69.731 110.875,69.295 110.513 C 68.948 110.225,68.750 110.208,68.750 110.466 C 68.750 110.690,68.936 110.935,69.164 111.010 C 69.406 111.091,68.998 112.370,68.185 114.081 C 65.557 119.616,65.610 118.562,65.649 164.614 C 65.669 187.406,65.727 206.406,65.779 206.836 C 66.169 210.073,67.785 214.503,69.660 217.473 C 70.228 218.372,70.594 219.360,70.475 219.670 C 70.357 219.980,70.445 220.348,70.672 220.489 C 70.934 220.650,70.990 220.486,70.827 220.040 C 70.686 219.653,71.759 220.610,73.212 222.168 C 74.665 223.726,76.794 225.562,77.942 226.249 C 79.090 226.935,79.965 227.601,79.887 227.727 C 79.809 227.854,80.040 227.983,80.400 228.014 C 80.760 228.046,82.373 228.545,83.984 229.125 C 88.405 230.716,85.094 230.664,182.617 230.664 C 269.740 230.664,274.142 230.631,276.563 229.955 C 280.338 228.900,285.056 226.461,287.632 224.234 C 288.886 223.149,290.099 222.378,290.329 222.519 C 290.562 222.663,290.633 222.594,290.490 222.363 C 290.221 221.928,292.875 218.495,293.371 218.637 C 293.529 218.682,293.643 218.507,293.625 218.246 C 293.607 217.986,294.151 216.631,294.834 215.234 C 297.852 209.064,297.717 211.456,297.672 165.039 C 297.646 137.829,297.490 122.711,297.216 120.944 C 296.365 115.456,292.522 108.568,288.451 105.231 C 287.503 104.454,286.840 103.635,286.978 103.411 C 287.117 103.188,287.046 103.118,286.821 103.257 C 286.597 103.396,285.393 102.896,284.147 102.145 C 282.901 101.395,281.696 100.779,281.468 100.775 C 281.241 100.772,281.318 100.580,281.641 100.348 C 282.153 99.979,282.149 99.951,281.612 100.120 C 281.274 100.226,279.521 99.886,277.717 99.363 C 274.509 98.434,274.080 98.411,258.020 98.300 C 248.990 98.237,241.250 98.080,240.820 97.951 C 240.391 97.822,239.926 97.703,239.787 97.686 C 238.590 97.544,234.484 91.787,234.993 90.964 C 235.152 90.706,235.110 90.608,234.896 90.739 C 234.687 90.869,233.344 88.893,231.912 86.350 C 227.905 79.232,223.360 75.448,217.383 74.254 C 214.791 73.737,178.715 73.443,171.484 73.881 M219.075 82.658 C 221.627 83.930,222.283 84.797,226.699 92.734 C 234.313 106.425,233.056 105.857,255.775 105.865 C 273.728 105.872,274.914 105.991,279.399 108.254 C 284.036 110.593,288.288 116.092,289.443 121.242 C 290.042 123.919,290.005 205.828,289.403 208.013 C 287.805 213.810,283.458 218.722,277.344 221.640 L 274.805 222.852 182.813 222.957 C 119.704 223.029,90.215 222.933,88.892 222.652 C 82.473 221.288,76.699 216.028,74.366 209.419 L 73.454 206.836 73.446 164.592 C 73.438 123.544,73.459 122.277,74.213 119.837 C 76.024 113.973,81.384 108.385,86.914 106.593 C 88.109 106.206,95.191 106.037,117.001 105.876 L 145.526 105.664 148.104 104.395 C 151.603 102.672,153.121 100.888,157.846 92.950 C 162.543 85.060,163.396 83.996,166.110 82.643 L 168.122 81.641 192.578 81.641 L 217.034 81.641 219.075 82.658 M122.813 89.883 C 123.829 90.682,123.853 90.797,123.744 94.431 L 123.633 98.159 111.133 98.182 L 98.633 98.204 98.633 94.454 C 98.633 88.702,97.810 89.063,110.945 89.063 C 121.350 89.063,121.810 89.094,122.813 89.883 M226.563 110.405 C 210.252 111.930,194.345 122.237,187.124 135.959 L 185.651 138.759 185.475 134.492 C 185.180 127.340,182.222 122.582,176.228 119.619 L 173.283 118.164 136.153 118.164 L 99.023 118.164 96.680 119.104 C 93.413 120.413,89.163 124.663,87.854 127.930 L 86.914 130.273 86.800 163.592 C 86.725 185.376,86.826 197.668,87.090 199.098 C 88.046 204.269,91.235 208.409,96.000 210.667 L 98.633 211.914 135.322 212.020 C 176.318 212.137,174.079 212.276,178.447 209.359 C 184.212 205.509,185.313 202.497,185.335 190.528 C 185.344 185.426,185.404 181.251,185.469 181.251 C 185.534 181.250,185.858 181.909,186.189 182.715 C 189.532 190.841,199.575 200.629,209.555 205.485 C 251.624 225.955,296.653 180.072,275.699 138.086 C 266.703 120.061,246.288 108.560,226.563 110.405 M238.584 118.598 C 268.542 123.891,283.350 158.800,266.137 183.553 C 250.517 206.015,220.481 209.234,201.272 190.506 C 171.478 161.458,197.485 111.338,238.584 118.598 M172.881 125.854 C 177.729 128.511,177.789 128.862,177.654 153.811 L 177.539 175.005 174.247 172.800 C 164.618 166.354,162.704 166.685,147.610 177.409 C 142.906 180.751,143.989 181.027,135.742 174.389 C 122.562 163.781,119.439 163.702,107.031 173.663 C 103.916 176.164,99.825 179.428,97.941 180.917 L 94.515 183.624 94.621 157.311 L 94.727 130.997 95.804 129.369 C 97.134 127.360,99.548 125.717,101.697 125.357 C 105.633 124.699,171.613 125.159,172.881 125.854 M227.539 127.998 C 193.880 132.198,187.548 177.880,218.891 190.395 C 234.168 196.496,252.826 189.263,260.119 174.414 C 271.064 152.126,251.987 124.947,227.539 127.998 M238.181 136.932 C 261.475 144.742,261.012 176.824,237.500 184.030 C 226.397 187.433,213.887 181.924,208.842 171.409 C 199.244 151.406,217.470 129.988,238.181 136.932 M222.204 139.813 C 214.869 142.175,209.648 153.372,213.899 157.623 C 219.316 163.040,234.051 150.356,230.654 143.199 C 229.264 140.269,225.487 138.756,222.204 139.813 M227.588 140.648 C 232.600 143.075,231.362 149.752,224.905 155.126 C 214.325 163.931,207.476 153.768,217.261 143.785 C 220.849 140.125,224.325 139.069,227.588 140.648 M124.396 174.989 C 125.050 175.394,128.047 177.684,131.055 180.078 C 138.420 185.941,141.675 188.061,150.295 192.614 C 160.911 198.220,162.749 198.621,164.276 195.668 C 165.908 192.512,165.063 191.576,156.983 187.593 L 150.025 184.162 155.847 180.333 C 164.162 174.865,164.182 174.863,170.542 179.000 C 172.027 179.965,174.253 181.392,175.488 182.170 L 177.734 183.584 177.726 190.913 C 177.715 200.007,176.658 202.718,172.513 204.281 C 170.477 205.048,101.030 204.832,99.485 204.053 C 95.546 202.067,93.472 197.369,94.888 193.643 C 95.452 192.160,117.374 174.639,119.342 174.098 C 120.597 173.753,123.115 174.197,124.396 174.989 M81.250 229.297 C 81.250 229.512,81.514 229.688,81.836 229.688 C 82.158 229.688,82.422 229.512,82.422 229.297 C 82.422 229.082,82.158 228.906,81.836 228.906 C 81.514 228.906,81.250 229.082,81.250 229.297 M84.375 230.385 C 84.375 230.554,84.727 230.692,85.156 230.692 C 85.586 230.692,85.938 230.554,85.938 230.385 C 85.938 230.216,85.586 230.078,85.156 230.078 C 84.727 230.078,84.375 230.216,84.375 230.385 M261.426 242.066 C 261.802 242.164,262.417 242.164,262.793 242.066 C 263.169 241.968,262.861 241.888,262.109 241.888 C 261.357 241.888,261.050 241.968,261.426 242.066 " stroke="none" fill="#05429b" fill-rule="evenodd"></path><path id="path3" d="M167.042 82.210 C 164.158 83.246,162.856 84.762,158.203 92.501 C 149.624 106.771,152.283 105.866,118.857 105.898 C 104.774 105.912,91.885 106.061,90.214 106.229 C 82.711 106.986,76.091 112.918,74.005 120.754 C 73.118 124.087,73.170 205.196,74.061 208.230 C 76.129 215.271,81.589 220.651,88.493 222.449 C 91.322 223.186,271.035 223.356,274.208 222.625 C 280.920 221.078,287.242 215.019,289.224 208.230 C 290.133 205.119,290.167 124.451,289.261 120.974 C 287.527 114.316,282.805 109.223,276.276 106.968 C 273.663 106.065,273.440 106.055,256.445 106.051 L 239.258 106.047 236.915 105.108 C 233.286 103.653,231.319 101.308,226.758 92.997 C 222.652 85.516,221.365 83.812,218.893 82.586 C 216.882 81.587,169.725 81.246,167.042 82.210 M237.827 110.771 C 274.331 116.191,292.898 156.979,272.740 187.468 C 251.743 219.226,204.218 217.405,186.900 184.179 L 185.547 181.584 185.547 189.601 C 185.547 202.779,183.603 207.191,176.266 210.667 L 173.633 211.914 135.938 211.914 L 98.242 211.914 95.789 210.633 C 91.278 208.277,88.452 204.927,87.324 200.598 C 86.416 197.112,86.413 133.375,87.321 129.867 C 88.542 125.150,91.717 121.449,96.484 119.184 L 98.633 118.164 135.938 118.164 L 173.242 118.164 175.586 119.105 C 181.485 121.473,185.137 127.081,185.531 134.375 C 185.711 137.713,185.858 138.582,186.102 137.758 C 186.746 135.583,191.116 129.542,194.770 125.776 C 206.378 113.814,221.897 108.405,237.827 110.771 M115.137 125.683 C 122.710 125.743,135.103 125.743,142.676 125.683 C 150.249 125.624,144.053 125.576,128.906 125.576 C 113.760 125.576,107.563 125.624,115.137 125.683 M159.282 125.667 C 159.768 125.760,160.471 125.757,160.844 125.659 C 161.218 125.561,160.820 125.485,159.961 125.489 C 159.102 125.493,158.796 125.573,159.282 125.667 M97.245 128.027 L 95.898 129.492 97.363 128.146 C 98.727 126.893,99.008 126.563,98.709 126.563 C 98.644 126.563,97.985 127.222,97.245 128.027 M95.301 130.490 C 95.065 130.932,94.929 131.467,95.000 131.679 C 95.071 131.891,95.330 131.530,95.577 130.876 C 96.090 129.517,95.937 129.302,95.301 130.490 M94.626 157.715 C 94.574 171.733,94.614 183.203,94.716 183.203 C 95.005 183.203,110.547 170.726,110.547 170.494 C 110.547 170.380,107.954 172.371,104.785 174.919 C 101.616 177.467,98.102 180.214,96.976 181.022 L 94.928 182.491 94.824 157.359 L 94.721 132.227 94.626 157.715 M224.609 140.273 C 225.048 140.585,224.803 140.635,223.633 140.473 C 222.469 140.312,222.220 140.362,222.656 140.670 C 223.136 141.009,223.099 141.053,222.449 140.913 C 222.013 140.820,221.432 140.984,221.156 141.279 C 220.881 141.573,220.464 141.695,220.229 141.550 C 219.972 141.391,219.913 141.466,220.080 141.737 C 220.343 142.162,219.817 142.377,218.945 142.201 C 218.730 142.158,218.690 142.257,218.855 142.422 C 219.256 142.824,216.780 145.348,216.284 145.042 C 216.070 144.909,216.002 144.975,216.133 145.187 C 216.264 145.399,215.940 146.208,215.412 146.984 C 214.885 147.761,214.453 148.592,214.453 148.830 C 214.453 149.069,214.279 149.157,214.067 149.026 C 213.838 148.884,213.785 149.060,213.938 149.458 C 214.102 149.886,214.043 150.034,213.775 149.868 C 213.503 149.700,213.432 149.906,213.575 150.451 C 213.696 150.915,213.635 151.195,213.440 151.075 C 213.244 150.953,213.086 151.865,213.086 153.123 C 213.086 154.371,213.218 155.310,213.379 155.212 C 213.661 155.039,213.848 156.030,213.686 156.836 C 213.642 157.051,213.739 157.094,213.901 156.933 C 214.062 156.771,214.505 156.920,214.884 157.263 C 215.786 158.079,219.087 158.062,220.690 157.233 C 221.355 156.890,222.096 156.731,222.337 156.880 C 222.599 157.042,222.669 156.977,222.510 156.721 C 222.204 156.225,223.582 155.353,224.005 155.775 C 224.158 155.929,224.231 155.879,224.167 155.664 C 224.029 155.201,227.761 151.323,228.208 151.465 C 228.377 151.519,228.495 151.431,228.469 151.270 C 228.347 150.494,228.554 149.978,228.902 150.193 C 229.131 150.334,229.183 150.159,229.031 149.761 C 228.857 149.309,228.921 149.182,229.226 149.370 C 229.531 149.559,229.595 149.431,229.421 148.980 C 229.263 148.568,229.319 148.405,229.565 148.557 C 229.814 148.711,229.901 148.404,229.796 147.742 C 229.658 146.881,229.711 146.791,230.073 147.266 C 230.448 147.757,230.490 147.725,230.333 147.070 C 230.230 146.641,230.029 145.586,229.886 144.727 C 229.581 142.891,228.083 141.154,226.508 140.808 C 225.893 140.673,225.391 140.401,225.391 140.203 C 225.391 140.006,225.083 139.846,224.707 139.850 C 224.117 139.855,224.103 139.913,224.609 140.273 M118.848 166.285 C 119.224 166.383,119.839 166.383,120.215 166.285 C 120.591 166.187,120.283 166.106,119.531 166.106 C 118.779 166.106,118.472 166.187,118.848 166.285 M121.582 166.285 C 121.958 166.383,122.573 166.383,122.949 166.285 C 123.325 166.187,123.018 166.106,122.266 166.106 C 121.514 166.106,121.206 166.187,121.582 166.285 M123.861 166.547 C 123.950 166.624,124.551 166.805,125.195 166.949 C 126.051 167.141,126.209 167.104,125.781 166.815 C 125.254 166.458,123.469 166.209,123.861 166.547 M114.746 167.411 C 113.232 168.233,113.403 168.516,114.941 167.734 C 116.414 166.985,116.674 166.791,116.178 166.813 C 115.981 166.821,115.337 167.090,114.746 167.411 M128.125 168.070 C 128.125 168.177,129.399 169.242,130.957 170.437 C 132.515 171.632,135.877 174.290,138.429 176.344 C 143.845 180.703,143.066 180.477,145.835 178.494 C 148.787 176.380,148.670 176.110,145.681 178.140 C 144.106 179.210,143.159 179.627,142.849 179.390 C 142.593 179.194,139.834 177.015,136.719 174.547 C 129.960 169.194,128.125 167.811,128.125 168.070 M153.365 172.847 C 152.316 173.574,151.261 174.380,151.022 174.639 C 150.782 174.898,151.685 174.376,153.027 173.478 C 154.370 172.580,155.469 171.765,155.469 171.665 C 155.469 171.397,155.432 171.418,153.365 172.847 M119.065 174.378 C 117.363 174.985,116.964 175.285,104.761 185.097 C 94.864 193.056,94.531 193.429,94.531 196.555 C 94.531 199.510,96.626 202.694,99.398 203.953 C 101.901 205.090,170.753 205.080,172.965 203.942 C 177.056 201.837,177.734 199.975,177.734 190.842 C 177.734 183.766,177.716 183.600,176.855 183.065 C 176.372 182.764,173.968 181.239,171.512 179.676 C 164.046 174.924,164.177 174.919,156.059 180.304 L 150.263 184.149 156.870 187.378 C 160.503 189.155,163.784 190.983,164.160 191.441 C 165.941 193.611,164.120 197.656,161.361 197.656 C 157.773 197.656,140.339 187.540,130.617 179.817 C 123.315 174.017,121.918 173.359,119.065 174.378 " stroke="none" fill="#37c6cc" fill-rule="evenodd"></path><path id="path4" d="M191.704 73.714 C 192.190 73.807,192.893 73.804,193.266 73.706 C 193.640 73.608,193.242 73.532,192.383 73.536 C 191.523 73.540,191.218 73.620,191.704 73.714 M207.520 73.707 C 207.896 73.805,208.511 73.805,208.887 73.707 C 209.263 73.609,208.955 73.528,208.203 73.528 C 207.451 73.528,207.144 73.609,207.520 73.707 M226.953 79.492 C 227.682 80.244,228.366 80.859,228.474 80.859 C 228.581 80.859,228.073 80.244,227.344 79.492 C 226.615 78.740,225.931 78.125,225.823 78.125 C 225.716 78.125,226.224 78.740,226.953 79.492 M113.969 81.136 C 114.455 81.229,115.158 81.226,115.532 81.128 C 115.905 81.030,115.508 80.954,114.648 80.958 C 113.789 80.962,113.483 81.042,113.969 81.136 M73.614 105.957 L 72.070 107.617 73.730 106.073 C 75.274 104.637,75.570 104.297,75.275 104.297 C 75.211 104.297,74.464 105.044,73.614 105.957 M90.332 106.129 C 90.708 106.227,91.323 106.227,91.699 106.129 C 92.075 106.030,91.768 105.950,91.016 105.950 C 90.264 105.950,89.956 106.030,90.332 106.129 M244.238 106.150 C 245.903 106.223,248.628 106.223,250.293 106.150 C 251.958 106.077,250.596 106.017,247.266 106.017 C 243.936 106.017,242.573 106.077,244.238 106.150 M254.004 106.129 C 254.380 106.227,254.995 106.227,255.371 106.129 C 255.747 106.030,255.439 105.950,254.688 105.950 C 253.936 105.950,253.628 106.030,254.004 106.129 M225.856 118.448 C 226.396 118.618,225.921 118.679,224.674 118.600 C 223.291 118.512,222.765 118.592,223.111 118.837 C 223.457 119.081,223.106 119.132,222.070 118.989 C 220.909 118.828,220.658 118.878,221.094 119.185 C 221.533 119.493,221.336 119.540,220.313 119.369 C 219.447 119.225,219.143 119.269,219.486 119.489 C 220.166 119.927,217.837 120.519,217.137 120.086 C 216.859 119.914,216.780 119.969,216.938 120.224 C 217.254 120.736,215.816 121.258,215.178 120.863 C 214.905 120.695,214.828 120.752,214.984 121.005 C 215.301 121.517,213.863 122.039,213.224 121.645 C 212.921 121.457,212.876 121.535,213.090 121.881 C 213.324 122.260,213.230 122.329,212.739 122.141 C 212.287 121.968,212.160 122.032,212.348 122.336 C 212.537 122.641,212.410 122.705,211.958 122.532 C 211.506 122.358,211.379 122.422,211.567 122.727 C 211.756 123.032,211.628 123.096,211.177 122.922 C 210.725 122.749,210.597 122.813,210.786 123.118 C 210.972 123.418,210.851 123.488,210.428 123.326 C 210.078 123.191,209.670 123.276,209.522 123.515 C 209.349 123.796,209.434 123.837,209.766 123.633 C 210.114 123.417,210.183 123.469,209.982 123.794 C 209.819 124.057,209.443 124.178,209.145 124.064 C 208.847 123.950,208.645 124.070,208.696 124.330 C 208.747 124.591,208.488 124.781,208.121 124.753 C 207.753 124.725,207.490 124.900,207.535 125.144 C 207.580 125.387,207.266 125.586,206.836 125.586 C 206.403 125.587,206.054 125.848,206.054 126.172 C 206.053 126.494,205.789 126.762,205.468 126.768 C 204.653 126.783,203.854 127.334,204.091 127.717 C 204.327 128.100,203.392 128.936,202.598 129.053 C 201.798 129.170,200.752 130.105,200.989 130.490 C 201.258 130.923,198.882 133.596,198.327 133.486 C 198.085 133.438,197.880 133.750,197.870 134.179 C 197.860 134.608,197.588 134.959,197.266 134.960 C 196.942 134.960,196.680 135.309,196.680 135.742 C 196.680 136.172,196.481 136.486,196.237 136.441 C 195.994 136.396,195.818 136.659,195.847 137.027 C 195.875 137.395,195.699 137.658,195.456 137.613 C 195.213 137.568,195.037 137.831,195.065 138.199 C 195.094 138.566,194.904 138.825,194.643 138.774 C 194.351 138.717,194.264 138.929,194.416 139.327 C 194.581 139.757,194.513 139.879,194.211 139.692 C 193.907 139.504,193.843 139.631,194.016 140.083 C 194.190 140.535,194.126 140.662,193.821 140.473 C 193.516 140.285,193.452 140.412,193.626 140.864 C 193.799 141.316,193.735 141.443,193.430 141.255 C 193.125 141.066,193.062 141.194,193.235 141.645 C 193.408 142.097,193.345 142.224,193.040 142.036 C 192.735 141.847,192.671 141.975,192.844 142.427 C 193.018 142.878,192.954 143.006,192.649 142.817 C 192.344 142.629,192.280 142.756,192.454 143.208 C 192.642 143.699,192.572 143.793,192.194 143.558 C 191.848 143.345,191.769 143.390,191.957 143.693 C 192.309 144.263,191.856 145.785,191.415 145.513 C 191.235 145.402,191.188 145.691,191.309 146.154 C 191.450 146.694,191.380 146.905,191.114 146.740 C 190.847 146.576,190.777 146.786,190.918 147.326 C 191.053 147.843,190.986 148.074,190.743 147.924 C 190.499 147.774,190.412 148.088,190.517 148.742 C 190.650 149.580,190.597 149.681,190.266 149.219 C 189.946 148.774,189.900 148.962,190.072 150.000 C 190.246 151.041,190.199 151.228,189.877 150.781 C 189.555 150.335,189.508 150.521,189.682 151.563 C 189.834 152.475,189.787 152.756,189.540 152.408 C 189.295 152.062,189.215 152.586,189.303 153.971 C 189.382 155.218,189.321 155.693,189.151 155.153 C 188.995 154.657,188.867 156.996,188.867 160.352 C 188.867 163.707,188.966 166.046,189.088 165.550 C 189.240 164.928,189.391 165.334,189.576 166.863 C 189.723 168.081,189.739 169.400,189.611 169.793 C 189.414 170.402,189.448 170.421,189.840 169.922 C 190.210 169.451,190.257 169.588,190.078 170.625 C 189.921 171.535,189.987 171.833,190.302 171.638 C 190.605 171.451,190.677 171.633,190.528 172.205 C 190.386 172.745,190.457 172.956,190.723 172.791 C 190.989 172.626,191.060 172.837,190.918 173.377 C 190.777 173.917,190.847 174.128,191.114 173.963 C 191.380 173.798,191.450 174.009,191.309 174.549 C 191.188 175.012,191.235 175.301,191.415 175.190 C 191.856 174.918,192.309 176.440,191.957 177.010 C 191.769 177.314,191.848 177.358,192.194 177.145 C 192.572 176.911,192.642 177.004,192.454 177.495 C 192.280 177.947,192.344 178.074,192.649 177.886 C 192.954 177.697,193.018 177.825,192.844 178.277 C 192.671 178.728,192.735 178.856,193.040 178.667 C 193.345 178.479,193.408 178.606,193.235 179.058 C 193.062 179.509,193.125 179.637,193.430 179.448 C 193.735 179.260,193.799 179.387,193.626 179.839 C 193.452 180.291,193.516 180.418,193.821 180.230 C 194.126 180.041,194.190 180.169,194.016 180.620 C 193.843 181.072,193.907 181.199,194.211 181.011 C 194.513 180.825,194.581 180.947,194.416 181.377 C 194.264 181.774,194.351 181.986,194.643 181.929 C 194.904 181.878,195.094 182.137,195.065 182.504 C 195.037 182.872,195.213 183.135,195.456 183.090 C 195.699 183.045,195.875 183.309,195.847 183.676 C 195.818 184.044,195.994 184.307,196.237 184.262 C 196.481 184.217,196.680 184.531,196.680 184.961 C 196.680 185.394,196.942 185.743,197.266 185.743 C 197.588 185.744,197.854 186.028,197.857 186.374 C 197.864 187.120,198.801 188.344,199.184 188.107 C 199.466 187.933,203.012 191.434,202.960 191.834 C 202.893 192.352,203.996 193.300,204.458 193.123 C 204.730 193.019,205.201 193.239,205.504 193.612 C 205.983 194.203,205.979 194.247,205.469 193.958 C 205.120 193.759,205.014 193.768,205.208 193.980 C 205.387 194.176,205.695 194.358,205.892 194.385 C 206.089 194.412,206.436 194.456,206.664 194.482 C 206.891 194.509,206.966 194.711,206.830 194.932 C 206.694 195.152,206.727 195.307,206.905 195.276 C 207.662 195.144,208.233 195.338,208.035 195.659 C 207.917 195.850,208.127 195.981,208.500 195.952 C 208.876 195.922,209.132 196.130,209.072 196.416 C 209.013 196.700,209.145 196.822,209.365 196.686 C 209.861 196.379,211.427 197.427,211.045 197.810 C 210.891 197.963,211.097 197.961,211.502 197.806 C 212.010 197.611,212.151 197.663,211.958 197.976 C 211.769 198.281,211.897 198.345,212.348 198.171 C 212.839 197.983,212.933 198.053,212.699 198.431 C 212.485 198.777,212.530 198.856,212.834 198.668 C 213.473 198.273,214.910 198.795,214.594 199.307 C 214.437 199.560,214.515 199.617,214.787 199.449 C 215.357 199.097,216.879 199.551,216.607 199.992 C 216.496 200.171,216.784 200.219,217.248 200.097 C 217.765 199.962,217.996 200.030,217.846 200.273 C 217.696 200.516,218.010 200.603,218.664 200.499 C 219.513 200.363,219.609 200.416,219.141 200.763 C 218.685 201.100,218.806 201.137,219.687 200.931 C 220.380 200.770,220.729 200.814,220.587 201.044 C 220.449 201.267,220.864 201.359,221.603 201.269 C 222.556 201.153,222.713 201.213,222.266 201.524 C 221.834 201.824,222.091 201.874,223.242 201.714 C 224.278 201.571,224.629 201.622,224.283 201.867 C 223.937 202.111,224.463 202.191,225.846 202.103 C 227.092 202.024,227.568 202.085,227.029 202.255 C 226.534 202.411,228.291 202.542,230.935 202.545 C 233.751 202.548,235.257 202.433,234.570 202.266 C 233.811 202.081,234.223 202.031,235.742 202.125 C 237.381 202.226,237.851 202.161,237.305 201.910 C 236.738 201.649,237.002 201.598,238.261 201.725 C 239.510 201.850,239.839 201.788,239.433 201.503 C 239.024 201.216,239.247 201.169,240.234 201.334 C 241.272 201.507,241.460 201.460,241.016 201.141 C 240.554 200.809,240.655 200.756,241.492 200.890 C 242.146 200.994,242.461 200.907,242.310 200.663 C 242.160 200.421,242.392 200.353,242.908 200.488 C 243.448 200.629,243.659 200.559,243.494 200.293 C 243.330 200.026,243.540 199.956,244.080 200.097 C 244.620 200.239,244.831 200.168,244.666 199.902 C 244.501 199.636,244.712 199.565,245.252 199.707 C 245.797 199.849,246.003 199.779,245.835 199.507 C 245.669 199.238,245.817 199.179,246.245 199.343 C 246.694 199.515,246.824 199.452,246.639 199.153 C 246.451 198.848,246.632 198.776,247.205 198.925 C 247.751 199.068,247.956 198.997,247.788 198.725 C 247.622 198.457,247.770 198.398,248.198 198.562 C 248.650 198.735,248.778 198.672,248.589 198.367 C 248.401 198.062,248.528 197.998,248.980 198.171 C 249.431 198.345,249.559 198.281,249.370 197.976 C 249.182 197.671,249.309 197.607,249.761 197.781 C 250.140 197.926,250.333 197.878,250.205 197.671 C 249.904 197.184,251.456 196.373,252.022 196.722 C 252.313 196.902,252.355 196.819,252.145 196.478 C 251.913 196.103,252.003 196.029,252.470 196.209 C 252.868 196.361,253.080 196.274,253.023 195.982 C 252.972 195.721,253.230 195.531,253.598 195.560 C 253.966 195.588,254.229 195.412,254.184 195.169 C 254.139 194.926,254.453 194.718,254.883 194.708 C 255.313 194.698,255.622 194.484,255.570 194.232 C 255.484 193.812,256.966 192.749,257.422 192.903 C 257.529 192.939,257.617 192.796,257.617 192.586 C 257.617 192.136,259.191 190.962,259.448 191.219 C 259.545 191.315,260.217 190.782,260.943 190.033 C 261.669 189.284,262.128 188.672,261.964 188.672 C 261.800 188.672,262.039 188.148,262.495 187.507 C 262.951 186.867,263.446 186.383,263.596 186.433 C 263.745 186.483,263.928 186.348,264.003 186.133 C 264.385 185.038,264.924 184.378,265.264 184.588 C 265.473 184.718,265.619 184.679,265.588 184.502 C 265.450 183.704,265.659 183.178,266.025 183.404 C 266.245 183.540,266.400 183.507,266.370 183.330 C 266.238 182.573,266.432 182.001,266.753 182.199 C 266.943 182.317,267.075 182.108,267.046 181.734 C 267.016 181.360,267.206 181.097,267.466 181.148 C 267.759 181.205,267.846 180.993,267.693 180.595 C 267.528 180.165,267.596 180.043,267.898 180.230 C 268.203 180.418,268.267 180.291,268.093 179.839 C 267.905 179.348,267.975 179.254,268.353 179.488 C 268.682 179.692,268.777 179.657,268.614 179.392 C 268.276 178.846,268.733 177.678,269.177 177.952 C 269.367 178.070,269.407 177.864,269.265 177.495 C 269.092 177.044,269.155 176.916,269.460 177.105 C 269.765 177.293,269.829 177.166,269.656 176.714 C 269.491 176.286,269.550 176.138,269.819 176.304 C 270.091 176.472,270.162 176.266,270.019 175.721 C 269.869 175.147,269.942 174.966,270.246 175.155 C 270.546 175.340,270.609 175.209,270.437 174.761 C 270.273 174.333,270.332 174.185,270.600 174.351 C 270.872 174.519,270.943 174.313,270.800 173.768 C 270.659 173.227,270.729 173.017,270.996 173.182 C 271.262 173.346,271.332 173.136,271.191 172.596 C 271.026 171.963,271.100 171.833,271.489 172.073 C 271.867 172.307,271.940 172.216,271.757 171.739 C 271.408 170.830,271.891 168.535,272.294 169.186 C 272.464 169.461,272.524 168.904,272.428 167.948 C 272.300 166.673,272.350 166.419,272.619 166.992 C 272.880 167.550,272.939 167.158,272.826 165.625 C 272.734 164.382,272.789 163.857,272.955 164.379 C 273.113 164.875,273.242 163.062,273.242 160.352 C 273.242 157.641,273.113 155.829,272.955 156.325 C 272.793 156.835,272.734 156.210,272.820 154.883 C 272.926 153.250,272.863 152.776,272.613 153.320 C 272.352 153.887,272.301 153.623,272.428 152.364 C 272.554 151.115,272.491 150.786,272.206 151.192 C 271.919 151.601,271.872 151.378,272.037 150.391 C 272.210 149.353,272.163 149.165,271.844 149.609 C 271.512 150.071,271.459 149.970,271.593 149.133 C 271.697 148.479,271.610 148.164,271.366 148.315 C 271.124 148.465,271.056 148.233,271.191 147.717 C 271.332 147.177,271.262 146.966,270.996 147.131 C 270.729 147.295,270.659 147.085,270.800 146.545 C 270.942 146.005,270.872 145.794,270.605 145.959 C 270.339 146.124,270.269 145.913,270.410 145.373 C 270.552 144.828,270.482 144.622,270.210 144.790 C 269.941 144.956,269.882 144.808,270.046 144.380 C 270.188 144.010,270.143 143.809,269.946 143.931 C 269.481 144.218,269.004 142.724,269.371 142.131 C 269.559 141.827,269.480 141.782,269.135 141.996 C 268.756 142.230,268.686 142.136,268.874 141.645 C 269.048 141.194,268.984 141.066,268.679 141.255 C 268.374 141.443,268.310 141.316,268.484 140.864 C 268.629 140.485,268.582 140.292,268.374 140.420 C 267.887 140.721,267.076 139.169,267.425 138.603 C 267.605 138.312,267.522 138.270,267.181 138.480 C 266.807 138.712,266.732 138.622,266.912 138.155 C 267.064 137.757,266.978 137.545,266.685 137.602 C 266.424 137.653,266.234 137.395,266.263 137.027 C 266.291 136.659,266.115 136.396,265.872 136.441 C 265.629 136.486,265.429 136.172,265.429 135.742 C 265.429 135.309,265.168 134.960,264.843 134.960 C 264.521 134.959,264.256 134.664,264.253 134.304 C 264.247 133.587,263.804 133.008,263.260 133.008 C 262.863 133.008,258.801 128.851,258.794 128.437 C 258.791 128.287,258.569 127.944,258.301 127.676 C 258.032 127.407,257.813 127.317,257.813 127.475 C 257.813 127.633,257.456 127.571,257.020 127.338 C 256.585 127.105,256.334 126.743,256.463 126.533 C 256.593 126.324,256.554 126.178,256.377 126.208 C 255.518 126.358,255.056 126.130,255.313 125.684 C 255.468 125.415,255.455 125.321,255.285 125.475 C 254.863 125.855,253.437 125.053,253.720 124.594 C 253.848 124.387,253.655 124.340,253.277 124.485 C 252.855 124.647,252.701 124.589,252.861 124.329 C 253.007 124.094,252.824 123.939,252.437 123.970 C 252.064 123.999,251.800 123.810,251.851 123.549 C 251.908 123.257,251.696 123.170,251.298 123.323 C 250.868 123.488,250.746 123.419,250.933 123.118 C 251.121 122.813,250.994 122.749,250.542 122.922 C 250.090 123.096,249.963 123.032,250.152 122.727 C 250.340 122.422,250.213 122.358,249.761 122.532 C 249.270 122.720,249.176 122.650,249.410 122.272 C 249.624 121.926,249.579 121.848,249.276 122.035 C 248.682 122.402,247.189 121.925,247.476 121.461 C 247.598 121.263,247.396 121.218,247.027 121.360 C 246.598 121.524,246.450 121.465,246.616 121.197 C 246.784 120.924,246.579 120.854,246.033 120.996 C 245.493 121.138,245.283 121.067,245.447 120.801 C 245.612 120.535,245.401 120.465,244.861 120.606 C 244.321 120.747,244.111 120.677,244.275 120.410 C 244.440 120.144,244.230 120.074,243.689 120.215 C 243.173 120.350,242.941 120.282,243.091 120.040 C 243.242 119.796,242.928 119.709,242.273 119.814 C 241.436 119.947,241.335 119.894,241.797 119.562 C 242.242 119.243,242.053 119.197,241.016 119.369 C 239.992 119.540,239.796 119.493,240.234 119.185 C 240.670 118.878,240.419 118.828,239.258 118.989 C 238.222 119.132,237.871 119.081,238.217 118.837 C 238.563 118.592,238.037 118.512,236.654 118.600 C 235.407 118.679,234.932 118.618,235.472 118.448 C 235.968 118.292,233.805 118.164,230.664 118.164 C 227.523 118.164,225.360 118.292,225.856 118.448 M129.492 125.396 L 156.055 125.604 128.260 125.595 C 111.440 125.589,100.553 125.728,100.687 125.945 C 100.809 126.143,100.617 126.192,100.259 126.055 C 99.902 125.918,99.609 125.986,99.609 126.207 C 99.609 126.428,99.478 126.554,99.316 126.487 C 99.155 126.421,98.149 127.236,97.081 128.299 C 96.013 129.362,95.351 130.100,95.612 129.939 C 95.930 129.743,96.009 129.845,95.853 130.251 C 95.726 130.583,95.480 130.768,95.308 130.661 C 95.136 130.555,95.094 130.847,95.215 131.311 C 95.381 131.943,95.306 132.073,94.917 131.833 C 94.535 131.597,94.467 131.692,94.660 132.194 C 94.804 132.570,94.922 144.046,94.922 157.697 C 94.922 179.384,94.994 182.458,95.491 182.045 C 95.804 181.786,96.270 181.704,96.528 181.863 C 96.816 182.041,96.893 181.986,96.729 181.721 C 96.501 181.351,97.866 180.272,98.438 180.370 C 98.545 180.389,98.721 180.302,98.828 180.178 C 98.936 180.054,98.760 180.084,98.438 180.245 C 98.115 180.405,98.286 180.183,98.817 179.752 C 99.348 179.320,99.907 179.044,100.060 179.138 C 100.212 179.233,100.464 179.104,100.619 178.852 C 100.807 178.548,100.718 178.492,100.353 178.684 C 100.052 178.844,100.239 178.621,100.770 178.189 C 101.301 177.758,101.861 177.482,102.013 177.576 C 102.165 177.670,102.417 177.541,102.572 177.290 C 102.760 176.986,102.671 176.929,102.306 177.122 C 102.005 177.281,102.192 177.058,102.723 176.627 C 103.255 176.195,103.814 175.919,103.966 176.013 C 104.118 176.108,104.370 175.979,104.526 175.727 C 104.714 175.423,104.625 175.367,104.260 175.559 C 103.958 175.719,104.145 175.496,104.677 175.064 C 105.208 174.633,105.767 174.357,105.919 174.451 C 106.071 174.545,106.323 174.416,106.479 174.165 C 106.667 173.861,106.578 173.804,106.213 173.997 C 105.911 174.156,106.099 173.933,106.630 173.502 C 107.161 173.070,107.720 172.794,107.872 172.888 C 108.025 172.983,108.276 172.854,108.432 172.602 C 108.623 172.293,108.536 172.246,108.166 172.458 C 107.546 172.811,107.816 172.546,109.558 171.088 C 110.197 170.554,110.548 170.388,110.340 170.718 C 110.131 171.049,110.459 170.785,111.068 170.132 C 111.677 169.480,112.057 169.209,111.913 169.531 C 111.769 169.854,112.033 169.678,112.500 169.141 C 112.967 168.604,113.231 168.428,113.086 168.750 C 112.941 169.072,113.146 168.961,113.540 168.503 C 114.529 167.354,115.828 166.749,116.637 167.060 C 117.109 167.241,117.227 167.177,117.024 166.848 C 116.809 166.500,117.015 166.446,117.799 166.643 C 118.522 166.824,118.782 166.774,118.605 166.488 C 118.427 166.200,119.164 166.064,120.898 166.064 C 122.359 166.064,123.358 166.219,123.231 166.425 C 123.101 166.635,123.530 166.681,124.260 166.535 C 125.150 166.357,125.432 166.414,125.236 166.731 C 125.057 167.021,125.173 167.097,125.566 166.946 C 125.900 166.818,126.172 166.918,126.172 167.169 C 126.172 167.419,126.348 167.516,126.563 167.383 C 126.777 167.250,126.953 167.357,126.953 167.620 C 126.953 167.884,127.068 167.985,127.207 167.845 C 127.347 167.705,127.712 167.895,128.018 168.268 C 128.323 168.640,128.442 168.693,128.281 168.384 C 128.120 168.075,128.810 168.412,129.814 169.133 C 131.444 170.304,132.359 171.193,131.190 170.471 C 130.908 170.296,130.845 170.364,131.021 170.649 C 131.177 170.901,131.449 171.017,131.627 170.907 C 131.805 170.797,132.284 171.014,132.693 171.389 C 133.101 171.764,133.163 171.895,132.831 171.680 C 132.305 171.340,132.296 171.378,132.759 171.968 C 133.052 172.342,133.412 172.573,133.559 172.482 C 133.973 172.227,134.961 172.959,134.961 173.521 C 134.961 173.797,135.137 174.030,135.352 174.037 C 136.188 174.067,137.508 175.061,137.255 175.471 C 137.109 175.708,137.156 175.799,137.361 175.672 C 137.820 175.388,138.867 175.997,138.867 176.548 C 138.867 176.771,138.955 176.923,139.063 176.887 C 139.421 176.766,141.009 177.754,140.914 178.039 C 140.863 178.194,140.908 178.335,141.016 178.352 C 141.652 178.455,142.962 179.382,142.813 179.623 C 142.715 179.781,142.962 179.911,143.360 179.911 C 143.759 179.911,144.053 179.729,144.015 179.506 C 143.977 179.284,144.246 179.125,144.614 179.153 C 144.981 179.182,145.245 179.006,145.200 178.763 C 145.154 178.519,145.412 178.318,145.773 178.315 C 146.134 178.313,146.573 178.153,146.750 177.960 C 146.933 177.759,146.861 177.730,146.582 177.890 C 145.660 178.421,146.094 177.824,147.118 177.153 C 147.817 176.695,148.055 176.650,147.866 177.010 C 147.713 177.301,147.971 177.100,148.438 176.563 C 148.904 176.025,149.168 175.850,149.023 176.172 C 148.879 176.494,149.123 176.318,149.567 175.781 C 150.010 175.244,150.377 174.929,150.382 175.080 C 150.387 175.231,150.832 174.914,151.370 174.375 C 151.911 173.835,152.551 173.520,152.798 173.672 C 153.074 173.843,153.139 173.776,152.967 173.498 C 152.714 173.088,153.201 172.866,154.033 173.010 C 154.210 173.041,154.265 172.921,154.156 172.744 C 154.046 172.567,154.315 172.198,154.754 171.924 C 155.408 171.516,155.502 171.519,155.280 171.944 C 155.132 172.228,155.333 172.076,155.728 171.606 C 156.122 171.136,156.708 170.696,157.030 170.629 C 157.351 170.562,157.848 170.244,158.133 169.922 C 158.418 169.600,158.542 169.554,158.407 169.820 C 158.246 170.138,158.370 170.224,158.767 170.072 C 159.099 169.944,159.275 169.685,159.157 169.495 C 159.040 169.305,159.217 169.254,159.550 169.382 C 159.883 169.510,160.157 169.464,160.157 169.280 C 160.157 168.959,162.399 168.620,164.453 168.629 C 166.413 168.638,168.358 168.953,168.359 169.261 C 168.359 169.435,168.535 169.469,168.750 169.336 C 168.965 169.203,169.141 169.291,169.141 169.531 C 169.141 169.771,169.316 169.859,169.531 169.727 C 169.746 169.594,169.922 169.682,169.922 169.922 C 169.922 170.162,170.098 170.250,170.313 170.117 C 170.527 169.984,170.703 170.072,170.703 170.313 C 170.703 170.553,170.868 170.647,171.070 170.523 C 171.271 170.398,171.618 170.607,171.839 170.988 C 172.061 171.368,172.247 171.514,172.254 171.312 C 172.260 171.110,172.542 171.286,172.881 171.703 C 173.219 172.120,173.379 172.197,173.237 171.875 C 173.095 171.553,173.342 171.729,173.786 172.266 C 174.229 172.803,174.596 173.077,174.601 172.875 C 174.605 172.672,174.886 172.848,175.224 173.265 C 175.562 173.682,175.723 173.760,175.581 173.438 C 175.439 173.115,175.686 173.291,176.129 173.828 C 176.573 174.365,176.942 174.629,176.950 174.414 C 176.958 174.199,177.138 174.287,177.349 174.609 C 177.603 174.996,177.700 167.657,177.636 153.013 C 177.574 138.784,177.399 130.731,177.148 130.552 C 176.934 130.399,176.700 130.010,176.628 129.688 C 176.478 129.005,173.772 126.370,173.340 126.485 C 173.179 126.528,173.047 126.368,173.047 126.130 C 173.047 125.892,172.774 125.802,172.441 125.930 C 172.107 126.058,171.927 126.012,172.041 125.829 C 172.488 125.105,167.453 125.003,135.785 125.094 L 102.930 125.187 129.492 125.396 M160.844 125.659 C 160.471 125.757,159.768 125.760,159.282 125.667 C 158.796 125.573,159.102 125.493,159.961 125.489 C 160.820 125.485,161.218 125.561,160.844 125.659 M234.180 127.754 C 233.645 127.997,234.016 128.042,235.352 127.894 C 236.856 127.728,237.170 127.780,236.719 128.121 C 236.262 128.466,236.423 128.506,237.451 128.302 C 238.395 128.115,238.691 128.169,238.493 128.490 C 238.297 128.807,238.528 128.859,239.283 128.670 C 239.990 128.492,240.265 128.541,240.097 128.813 C 239.936 129.074,240.151 129.143,240.686 129.004 C 241.313 128.839,241.448 128.914,241.212 129.296 C 241.001 129.637,241.047 129.714,241.349 129.527 C 241.988 129.133,243.426 129.655,243.109 130.167 C 242.953 130.420,243.030 130.477,243.303 130.309 C 243.867 129.960,245.396 130.408,245.127 130.843 C 245.019 131.019,245.236 131.138,245.610 131.108 C 245.983 131.079,246.247 131.268,246.196 131.529 C 246.139 131.821,246.351 131.908,246.748 131.755 C 247.216 131.576,247.306 131.650,247.074 132.025 C 246.862 132.368,246.905 132.449,247.202 132.266 C 247.616 132.010,251.172 134.133,251.172 134.637 C 251.172 134.760,250.864 134.620,250.488 134.325 C 249.870 133.840,249.855 133.854,250.337 134.468 C 250.630 134.842,251.037 135.044,251.242 134.918 C 251.740 134.610,256.786 139.683,256.478 140.181 C 256.346 140.396,256.443 140.698,256.695 140.854 C 257.007 141.047,257.047 140.963,256.821 140.588 C 256.539 140.119,256.590 140.120,257.169 140.590 C 257.543 140.893,257.760 141.371,257.652 141.652 C 257.544 141.933,257.651 142.283,257.890 142.431 C 258.168 142.603,258.222 142.502,258.039 142.150 C 257.883 141.848,258.046 141.953,258.401 142.383 C 259.551 143.772,261.777 148.504,261.554 149.085 C 261.435 149.396,261.506 149.546,261.712 149.418 C 262.189 149.124,262.671 150.970,262.281 151.601 C 262.106 151.885,262.152 151.973,262.398 151.821 C 262.955 151.476,263.377 153.333,263.082 154.835 C 262.930 155.614,262.971 155.870,263.196 155.545 C 263.412 155.234,263.517 157.363,263.466 161.014 C 263.382 167.007,262.775 170.919,262.004 170.443 C 261.761 170.293,261.716 170.383,261.891 170.666 C 262.283 171.301,261.350 173.497,260.826 173.173 C 260.570 173.015,260.508 173.165,260.664 173.569 C 260.956 174.330,260.603 175.471,260.159 175.197 C 259.991 175.093,259.878 175.314,259.907 175.688 C 259.937 176.061,259.748 176.325,259.487 176.274 C 259.226 176.223,259.091 176.399,259.187 176.665 C 259.283 176.931,258.997 177.588,258.553 178.125 C 258.108 178.662,257.875 178.855,258.034 178.553 C 258.221 178.200,258.169 178.100,257.890 178.272 C 257.651 178.420,257.544 178.771,257.652 179.051 C 257.760 179.332,257.543 179.810,257.169 180.113 C 256.590 180.584,256.539 180.584,256.821 180.115 C 257.047 179.740,257.007 179.656,256.695 179.849 C 256.443 180.005,256.330 180.282,256.443 180.464 C 256.749 180.960,253.053 184.800,252.148 184.926 C 251.719 184.986,251.367 185.245,251.367 185.501 C 251.367 186.069,250.354 186.742,249.911 186.469 C 249.735 186.359,249.638 186.503,249.697 186.787 C 249.756 187.072,249.504 187.281,249.136 187.253 C 248.769 187.225,248.505 187.400,248.550 187.644 C 248.596 187.887,248.327 188.062,247.953 188.032 C 247.567 188.002,247.384 188.157,247.529 188.392 C 247.690 188.652,247.536 188.709,247.114 188.547 C 246.745 188.406,246.533 188.435,246.643 188.612 C 246.943 189.099,242.362 191.170,241.781 190.811 C 241.437 190.598,241.382 190.661,241.602 191.017 C 241.838 191.399,241.704 191.473,241.076 191.309 C 240.536 191.168,240.326 191.238,240.490 191.504 C 240.655 191.771,240.444 191.841,239.904 191.700 C 239.365 191.558,239.154 191.629,239.318 191.894 C 239.491 192.174,239.140 192.226,238.244 192.054 C 237.308 191.874,237.088 191.912,237.500 192.182 C 238.189 192.634,237.944 192.656,231.055 192.759 C 225.449 192.843,223.144 192.631,223.894 192.101 C 224.243 191.854,224.048 191.814,223.301 191.978 C 221.947 192.275,219.417 191.517,219.783 190.924 C 219.938 190.674,219.859 190.618,219.588 190.785 C 218.995 191.152,217.501 190.675,217.788 190.211 C 217.910 190.014,217.750 189.952,217.434 190.074 C 216.710 190.351,215.134 189.540,215.439 189.047 C 215.567 188.840,215.374 188.793,214.995 188.938 C 214.504 189.126,214.411 189.057,214.645 188.678 C 214.857 188.334,214.814 188.254,214.514 188.439 C 214.031 188.737,212.358 187.772,212.724 187.406 C 212.844 187.286,212.623 187.214,212.233 187.246 C 211.830 187.279,211.570 187.081,211.631 186.787 C 211.690 186.503,211.571 186.374,211.366 186.500 C 211.161 186.626,210.498 186.266,209.892 185.699 C 209.285 185.132,209.141 184.910,209.570 185.205 C 210.291 185.701,210.309 185.688,209.808 185.049 C 209.508 184.668,209.168 184.451,209.052 184.568 C 208.763 184.857,206.236 182.370,206.456 182.014 C 206.553 181.857,206.326 181.490,205.953 181.197 C 205.330 180.708,205.318 180.729,205.810 181.445 C 206.106 181.875,205.884 181.730,205.317 181.124 C 204.750 180.518,204.404 179.815,204.549 179.562 C 204.694 179.309,204.673 179.227,204.503 179.381 C 203.832 179.987,200.632 174.670,201.036 173.620 C 201.208 173.170,201.156 173.011,200.889 173.176 C 200.357 173.505,199.948 172.466,200.274 171.616 C 200.430 171.208,200.368 171.061,200.107 171.223 C 199.559 171.562,199.135 170.409,199.447 169.427 C 199.597 168.956,199.540 168.747,199.302 168.894 C 198.761 169.228,198.347 167.344,198.636 165.868 C 198.777 165.151,198.738 164.845,198.543 165.126 C 198.011 165.888,198.251 154.326,198.811 152.251 C 199.085 151.233,199.448 150.486,199.618 150.591 C 199.788 150.696,199.828 150.403,199.707 149.939 C 199.543 149.312,199.617 149.177,199.999 149.413 C 200.355 149.633,200.418 149.579,200.205 149.235 C 199.846 148.653,201.917 144.072,202.403 144.373 C 202.580 144.482,202.610 144.270,202.468 143.902 C 202.306 143.480,202.364 143.326,202.624 143.486 C 202.859 143.632,203.014 143.449,202.983 143.062 C 202.954 142.689,203.129 142.420,203.372 142.465 C 203.615 142.510,203.791 142.247,203.763 141.879 C 203.734 141.512,203.944 141.259,204.228 141.318 C 204.513 141.377,204.642 141.258,204.516 141.054 C 204.389 140.849,204.750 140.185,205.317 139.579 C 205.884 138.973,206.106 138.828,205.810 139.258 C 205.318 139.974,205.330 139.995,205.953 139.507 C 206.326 139.214,206.533 138.814,206.412 138.618 C 206.124 138.153,208.856 135.421,209.321 135.709 C 209.517 135.830,209.917 135.623,210.210 135.250 C 210.698 134.627,210.678 134.615,209.961 135.107 C 209.531 135.403,209.676 135.180,210.282 134.613 C 210.889 134.046,211.552 133.686,211.757 133.813 C 211.961 133.939,212.080 133.810,212.021 133.525 C 211.962 133.239,212.218 133.032,212.593 133.061 C 212.967 133.091,213.184 132.971,213.075 132.794 C 212.710 132.205,219.986 128.840,221.079 129.092 C 221.763 129.250,221.902 129.208,221.525 128.958 C 221.134 128.697,221.574 128.479,223.088 128.185 C 224.247 127.959,225.547 127.698,225.977 127.604 C 227.580 127.255,234.979 127.390,234.180 127.754 M113.574 133.082 C 113.198 133.180,112.583 133.180,112.207 133.082 C 111.831 132.984,112.139 132.903,112.891 132.903 C 113.643 132.903,113.950 132.984,113.574 133.082 M130.859 134.278 C 132.901 135.298,133.156 136.523,133.181 145.423 C 133.215 157.474,133.262 157.422,122.503 157.422 C 113.302 157.422,113.170 157.459,109.343 161.116 C 106.027 164.284,105.089 164.634,103.461 163.315 L 102.539 162.568 102.539 149.672 C 102.539 132.146,101.154 133.607,117.773 133.600 C 128.155 133.596,129.648 133.673,130.859 134.278 M225.302 136.148 C 200.647 141.692,199.699 177.203,224.023 184.034 C 243.017 189.367,260.227 171.440,254.177 152.624 C 250.421 140.940,237.296 133.451,225.302 136.148 M253.890 137.598 C 254.848 138.618,255.683 139.453,255.745 139.453 C 256.039 139.453,255.729 139.102,254.004 137.484 L 252.148 135.742 253.890 137.598 M158.463 138.474 C 166.009 140.715,168.766 150.174,163.589 156.056 C 159.253 160.982,151.492 161.107,147.177 156.320 C 139.775 148.109,147.860 135.325,158.463 138.474 M227.147 139.843 C 227.711 140.057,228.075 140.389,227.957 140.580 C 227.839 140.771,228.049 140.903,228.422 140.874 C 228.796 140.844,229.058 141.040,229.004 141.309 C 228.950 141.577,229.126 141.753,229.395 141.699 C 229.663 141.646,229.859 141.907,229.829 142.281 C 229.800 142.655,229.932 142.864,230.123 142.746 C 230.532 142.493,231.251 144.212,231.248 145.436 C 231.244 146.860,230.450 149.254,230.061 149.013 C 229.856 148.886,229.809 149.081,229.954 149.458 C 230.116 149.880,230.058 150.034,229.798 149.873 C 229.563 149.728,229.408 149.911,229.439 150.297 C 229.468 150.671,229.279 150.935,229.018 150.884 C 228.757 150.832,228.628 151.011,228.732 151.280 C 228.972 151.907,224.524 156.332,223.813 156.174 C 223.518 156.108,223.265 156.318,223.251 156.641 C 223.236 156.963,222.922 157.202,222.553 157.173 C 222.185 157.144,221.971 157.260,222.077 157.433 C 222.183 157.605,221.512 158.036,220.585 158.390 C 218.653 159.127,214.983 159.077,215.132 158.315 C 215.183 158.054,214.992 157.930,214.706 158.040 C 214.036 158.297,213.127 157.207,213.503 156.597 C 213.686 156.301,213.627 156.232,213.341 156.408 C 212.780 156.755,212.109 155.108,212.112 153.393 C 212.115 151.504,212.863 149.155,213.363 149.464 C 213.617 149.621,213.682 149.551,213.522 149.293 C 213.225 148.812,214.561 145.924,215.289 145.474 C 215.593 145.286,215.640 145.363,215.430 145.703 C 215.219 146.044,215.266 146.120,215.571 145.932 C 215.823 145.776,215.943 145.511,215.839 145.343 C 215.591 144.942,216.613 143.555,217.156 143.555 C 217.388 143.555,217.534 143.450,217.480 143.322 C 217.286 142.857,218.497 141.766,218.995 141.957 C 219.276 142.065,219.627 141.958,219.774 141.719 C 219.948 141.438,219.862 141.397,219.531 141.602 C 219.183 141.817,219.114 141.766,219.315 141.440 C 219.477 141.177,219.854 141.056,220.152 141.170 C 220.450 141.285,220.652 141.173,220.601 140.923 C 220.380 139.843,225.099 139.065,227.147 139.843 M101.843 143.256 C 101.753 143.850,101.677 143.457,101.674 142.383 C 101.671 141.309,101.745 140.823,101.837 141.303 C 101.930 141.784,101.933 142.663,101.843 143.256 M101.849 154.785 C 101.766 155.698,101.699 154.951,101.699 153.125 C 101.699 151.299,101.766 150.552,101.849 151.465 C 101.931 152.378,101.931 153.872,101.849 154.785 M212.606 153.125 C 212.606 154.092,212.683 154.487,212.776 154.004 C 212.869 153.521,212.869 152.729,212.776 152.246 C 212.683 151.763,212.606 152.158,212.606 153.125 M226.349 153.613 L 224.805 155.273 226.465 153.729 C 228.009 152.293,228.305 151.953,228.009 151.953 C 227.945 151.953,227.198 152.700,226.349 153.613 M280.966 158.594 C 280.966 159.561,281.042 159.956,281.135 159.473 C 281.228 158.989,281.228 158.198,281.135 157.715 C 281.042 157.231,280.966 157.627,280.966 158.594 M188.388 160.156 C 188.388 161.123,188.464 161.519,188.557 161.035 C 188.650 160.552,188.650 159.761,188.557 159.277 C 188.464 158.794,188.388 159.189,188.388 160.156 M263.952 161.621 C 263.862 162.212,263.789 161.729,263.789 160.547 C 263.789 159.365,263.862 158.882,263.952 159.473 C 264.041 160.063,264.041 161.030,263.952 161.621 M197.933 161.421 C 197.839 161.907,197.759 161.602,197.755 160.742 C 197.750 159.883,197.827 159.485,197.925 159.859 C 198.022 160.232,198.026 160.935,197.933 161.421 M261.719 188.794 C 261.719 188.861,261.147 189.433,260.449 190.064 L 259.180 191.211 260.327 189.941 C 261.396 188.758,261.719 188.492,261.719 188.794 M231.941 193.248 C 231.354 193.337,230.299 193.339,229.597 193.252 C 228.895 193.165,229.375 193.092,230.664 193.090 C 231.953 193.088,232.528 193.159,231.941 193.248 " stroke="none" fill="#5589bb" fill-rule="evenodd"></path></g></svg>